<?xml version="1.0" encoding="UTF-8" standalone="no" ?>
<!DOCTYPE svg PUBLIC "-//W3C//DTD SVG 1.1//EN" "http://www.w3.org/Graphics/SVG/1.1/DTD/svg11.dtd">
<svg xmlns="http://www.w3.org/2000/svg" xmlns:xlink="http://www.w3.org/1999/xlink" version="1.1" width="67" height="106" viewBox="0 0 67 106" xml:space="preserve">
<defs>
</defs>
<g transform="matrix(1 0 0 1 33.5 53)" id="Seedlines"  >
<path style="stroke: rgb(0,0,0); stroke-width: 1; stroke-dasharray: none; stroke-linecap: butt; stroke-dashoffset: 0; stroke-linejoin: miter; stroke-miterlimit: 4; fill: rgb(0,0,0); fill-rule: evenodd; opacity: 1;"  transform=" translate(-1175, -60.5)" d="M 1174.61222 112.740453 C 1174.77233 112.830296 1175.19261 112.970052 1175.59288 113 C 1175.64292 113 1175.69295 113 1175.74298 113 C 1176.10323 113 1176.43345 112.930122 1176.54352 112.880209 C 1176.8037 112.790366 1202.27086 103.356833 1204.07207 77.861338 C 1204.83258 67.1001227 1202.42096 58.01598 1197.08736 51.5971846 C 1198.3282 50.4591711 1199.41893 49.4908614 1200.48966 48.5524994 C 1206.47369 43.3216304 1209.22554 34.2874005 1207.48437 25.5426653 C 1206.00337 18.1056474 1201.01001 12.0961375 1194.43558 9.87002345 C 1184.10862 6.35615724 1172.40073 7.85354341 1163.13449 13.8630532 C 1151.33654 21.5097052 1143.91154 35.8646473 1142.24042 54.2824971 C 1138.75807 92.685461 1174.25198 112.550784 1174.61222 112.740453 Z M 1176.16327 107.479636 C 1171.4601 97.91633 1170.97978 89.5509326 1174.61222 80.416877 C 1182.86778 94.1928298 1180.26603 101.579935 1176.16327 107.479636 Z M 1174.20195 72.700347 C 1172.78099 70.5141632 1171.19992 68.3679097 1169.48877 66.3015168 C 1166.77694 63.0372149 1163.81495 56.6583499 1165.70622 52.7351981 C 1167.5975 48.8020638 1171.74029 47.3446079 1174.88241 46.8155315 C 1175.88308 46.6458277 1176.90377 46.5659671 1177.93446 46.5659671 C 1178.95515 46.5659671 1179.98584 46.6458277 1181.01654 46.8155315 C 1184.34878 47.3545905 1187.56095 48.7421683 1190.32281 50.838509 C 1182.81775 58.3254398 1177.53419 65.4829457 1174.20195 72.700347 Z M 1201.65044 78.9893689 C 1200.8499 90.269678 1192.93457 100.581677 1178.72499 108.817301 C 1181.4068 103.476624 1182.38746 97.706696 1181.64696 91.677221 C 1181.04656 86.7458292 1179.28537 81.614786 1176.43345 76.4338298 C 1179.97584 69.6157315 1185.73972 62.4083127 1194.07533 54.4222532 C 1199.3689 60.7412228 1202.27086 70.1448079 1201.65044 78.9893689 Z M 1144.03162 54.1427411 C 1145.41255 38.9592454 1153.28786 25.6524736 1165.64618 17.6464489 C 1171.08985 14.1226002 1177.29403 12.2558587 1183.59828 12.2558587 C 1186.89049 12.2558587 1190.08264 12.7749526 1193.09467 13.7931752 C 1201.02001 16.4884703 1204.73251 21.9589211 1205.50303 25.8221774 C 1206.91398 32.9497356 1201.92062 40.2869278 1197.20744 44.3997484 C 1195.98662 45.4678839 1194.71577 46.6258625 1193.32483 47.9235972 C 1187.89117 43.6510554 1180.93648 41.854192 1174.23197 42.9822229 C 1169.5288 43.7808288 1165.48608 47.2847125 1163.67486 52.1462262 C 1161.55343 57.8263111 1162.42401 64.1951936 1165.88634 68.3679097 C 1168.38803 71.3826472 1170.58951 74.2875763 1172.43075 77.0228017 C 1171.96044 78.3504841 1171.60019 79.548393 1171.31 80.676424 C 1169.13854 89.1216819 1169.77897 97.2774453 1173.33136 106.321658 C 1152.50733 90.4493643 1142.38051 72.4108523 1144.03162 54.1427411 Z" stroke-linecap="round" />
</g>
</svg>
